# xmcd
#
# Track frame offsets:
#	150
#	20129
#	35628
#	49525
#	64748
#	83231
#	98803
#	114602
#	131746
#	146680
#	166659
#	182158
#	196055
#	211278
#	229761
#	245333
#	261132
#	278276
#
# Disc length: 3909
#
# Revision: 2
# Processed by: cddbd v1.5.1PL2 Copyright (c) Steve Scherf et al.
# Submitted via: kTunes Pro (development) 1.0patch41.32
#
DISCID=f80f4312
DTITLE=Various Artist - NM−3068
DYEAR=2005
DGENRE=Country
TTITLE0=Rascal Flatts - Skin
TTITLE1=Gretchen Wilson - All Jacked Up
TTITLE2=Joe Nichols - Tequila Makes Her Clothes Fall Off
TTITLE3=Martina McBride - Rose Garden
TTITLE4=Dierks Bentley - Come A Little Closer
TTITLE5=Keith Anderson - XXL
TTITLE6=Josh Turner - Your Man
TTITLE7=Chris Cagle - Miss Me Baby
TTITLE8=Catherine Britt w/ Elton John - Where We Both Say Goodbye
TTITLE9=Rascal Flats - Skin (Vocal)
TTITLE10=Gretchen Wilson - All Jacked Up (Vocal)
TTITLE11=Joe Nichols - Tequila Makes Her Clothes Fall Off (Vocal)
TTITLE12=Martina McBride - Rose Garden (Vocal)
TTITLE13=Dierks Bentley - Come A Little Closer (Vocal)
TTITLE14=Keith Anderson - XXL (Vocal)
TTITLE15=Josh Turner - Your Man (Vocal)
TTITLE16=Chris Cagle - Miss Me Baby (Vocal)
TTITLE17=Catherine Britt w/ Elton John - Where We Both Say Goodby (Vocal)
EXTD=
EXTT0=
EXTT1=
EXTT2=
EXTT3=
EXTT4=
EXTT5=
EXTT6=
EXTT7=
EXTT8=
EXTT9=
EXTT10=
EXTT11=
EXTT12=
EXTT13=
EXTT14=
EXTT15=
EXTT16=
EXTT17=
PLAYORDER=
